# xmcd
#
# Track frame offsets: 
#        150
#        13057
#        25880
#        38689
#        49595
#        62277
#        74397
#        88627
#        100557
#        113655
#        128152
#        141742
#        155587
#        169009
#        180680
#        194367
#        208752
#        220680
#        232762
#        244417
#
# Disc length: 3417 seconds
#
# Revision: 8
# Processed by: cddbd v1.5.2PL0 Copyright (c) Steve Scherf et al.
# Submitted via: ExactAudioCopy v1.0b3
#
DISCID=110d5714
DTITLE=Various Artist - Living the Blues: Blues Masters
DYEAR=1995
DGENRE=Blues
TTITLE0=Muddy Waters - I'm Your Hoochie Coochie Man
TTITLE1=Willie Mae "Big Mama" Thornton - Hound Dog
TTITLE2=Howlin' Wolf - Back Door Man
TTITLE3=Jimmy Reed - Baby What You Want Me to Do
TTITLE4=Elmore James - The Sky Is Crying
TTITLE5=Eddie Boyd - Five Long Years
TTITLE6=John Lee Hooker - Boogie Chillun
TTITLE7=Little Junior Parker - Next Time You See Me
TTITLE8=Slim Harpo - Baby Scratch My Back
TTITLE9=Otis Rush - So Many Roads So Many Trains
TTITLE10=B.B. King - Rock Me Baby
TTITLE11=Little Walter - You're So Fine
TTITLE12=Bo Diddley - I'm a Man
TTITLE13=Sonny Boy Williamson - Don't Start Me to Talkin'
TTITLE14=Guitar Slim - The Things That I Used to Do
TTITLE15=Lowell Fulson - Reconsider Baby
TTITLE16=Bobby Bland - Turn On Your Love Light
TTITLE17=Little Milton - Grits Ain't Groceries
TTITLE18=Albert King - Crosscut Saw
TTITLE19=Etta James - I'd Rather Go Blind
EXTD=YEAR: 1995
EXTT0=Muddy Waters
EXTT1="Big Mama" Thornton
EXTT2=Howlin' Wolf
EXTT3=Jimmy Reed
EXTT4=Elmore James
EXTT5=Eddie Boyd
EXTT6=John Lee Hooker
EXTT7=Little Junior Parker
EXTT8=Slim Harpo
EXTT9=Otis Rush
EXTT10=B.B. King
EXTT11=Little Walter
EXTT12=Bo Diddly
EXTT13=Sonny Boy Williamson
EXTT14=Guitar Slim
EXTT15=Lowell Fulson
EXTT16=Bobby "Blue" Bland
EXTT17=Little Milton
EXTT18=Albert King
EXTT19=Etta James
PLAYORDER=
